<svg xmlns="http://www.w3.org/2000/svg" viewBox="0 0 120 120" width="120" height="120">
  <defs>
    <linearGradient id="ttbg" x1="0" y1="0" x2="1" y2="1">
      <stop offset="0%" stop-color="#111827"/>
      <stop offset="100%" stop-color="#000000"/>
    </linearGradient>
  </defs>
  <rect x="4" y="4" width="112" height="112" rx="28" fill="url(#ttbg)"/>
  <!-- cyan shadow note -->
  <path d="M74 26 c1 8 6 15 14 17 v13 c-6 0-12-2-16-5 v22 c0 15-12 26-27 24 -12-2-21-12-21-24 0-13 11-24 25-23 v14 c-6-1-11 3-11 9 0 5 4 9 9 9 5 0 9-4 9-9 V24 Z" fill="#25f4ee" transform="translate(-3 3)"/>
  <!-- pink/red note -->
  <path d="M74 26 c1 8 6 15 14 17 v13 c-6 0-12-2-16-5 v22 c0 15-12 26-27 24 -12-2-21-12-21-24 0-13 11-24 25-23 v14 c-6-1-11 3-11 9 0 5 4 9 9 9 5 0 9-4 9-9 V24 Z" fill="#fe2c55" transform="translate(3 -3)"/>
  <!-- white note -->
  <path d="M74 26 c1 8 6 15 14 17 v13 c-6 0-12-2-16-5 v22 c0 15-12 26-27 24 -12-2-21-12-21-24 0-13 11-24 25-23 v14 c-6-1-11 3-11 9 0 5 4 9 9 9 5 0 9-4 9-9 V24 Z" fill="#ffffff"/>
</svg>
